+15_US_stride4.mot
nRows=125
nColumns=3

name +15_US_stride4.mot
datacolumns 3
datarows 125
range 1.430000 2.050000
endheader
time	soleus_l	med_gas_l
        1.4300000000	       31.3442715237	       32.7655015617	
        1.4350000000	       30.9435195857	       32.7312782774	
        1.4400000000	       30.6856505099	       32.6657365138	
        1.4450000000	       30.5722813954	       32.5021600914	
        1.4500000000	       30.5830121003	       32.3072235672	
        1.4550000000	       30.6242282180	       32.0228571695	
        1.4600000000	       30.7170937122	       31.6149493444	
        1.4650000000	       30.7709546237	       31.1754685508	
        1.4700000000	       30.7265721247	       30.7948282540	
        1.4750000000	       30.5891678488	       30.4935736925	
        1.4800000000	       30.4247831945	       30.3228320679	
        1.4850000000	       30.2657603359	       30.2169563505	
        1.4900000000	       30.0913319062	       30.1337033067	
        1.4950000000	       30.0019700413	       30.0785412113	
        1.5000000000	       30.0142090079	       30.0266972040	
        1.5050000000	       30.0926724400	       29.9644865358	
        1.5100000000	       30.2026231249	       29.8895507128	
        1.5150000000	       30.2897489427	       29.8148154474	
        1.5200000000	       30.3200382866	       29.7206505715	
        1.5250000000	       30.3015550325	       29.6230114770	
        1.5300000000	       30.1716037123	       29.5382987125	
        1.5350000000	       29.9635561367	       29.4619187443	
        1.5400000000	       29.7036908002	       29.3771631977	
        1.5450000000	       29.5071367004	       29.2975374131	
        1.5500000000	       29.3214879339	       29.1951430085	
        1.5550000000	       29.1209270300	       29.0181184788	
        1.5600000000	       28.9911528105	       28.8055163467	
        1.5650000000	       28.9280584577	       28.5650306467	
        1.5700000000	       28.9069459956	       28.3706071295	
        1.5750000000	       28.8936666164	       28.1985758923	
        1.5800000000	       28.8469465092	       27.9740259889	
        1.5850000000	       28.7282973695	       27.7644739025	
        1.5900000000	       28.5070044031	       27.5643208956	
        1.5950000000	       28.1765092535	       27.3675767018	
        1.6000000000	       27.7982727002	       27.1864349107	
        1.6050000000	       27.4774870238	       27.0446713326	
        1.6100000000	       27.0904347538	       26.8688042120	
        1.6150000000	       26.6990222069	       26.6719965744	
        1.6200000000	       26.3753996542	       26.4774206514	
        1.6250000000	       26.1167065545	       26.2863987128	
        1.6300000000	       25.8955423538	       26.0972462459	
        1.6350000000	       25.7357714545	       25.9626343924	
        1.6400000000	       25.5625129385	       25.8300168863	
        1.6450000000	       25.3015387023	       25.6636040464	
        1.6500000000	       24.9919415232	       25.5009505859	
        1.6550000000	       24.6323096391	       25.3296381105	
        1.6600000000	       24.2350466984	       25.1419433709	
        1.6650000000	       23.8930156837	       24.9715130621	
        1.6700000000	       23.6312748151	       24.8300929742	
        1.6750000000	       23.3376204244	       24.6496792157	
        1.6800000000	       23.1748703563	       24.4964068291	
        1.6850000000	       23.1642671444	       24.4105606519	
        1.6900000000	       23.3397512180	       24.3874545209	
        1.6950000000	       23.7090368355	       24.4371923339	
        1.7000000000	       24.0618018771	       24.5092591129	
        1.7050000000	       24.5218476550	       24.6202801376	
        1.7100000000	       25.0887779632	       24.7804200232	
        1.7150000000	       25.5624499185	       24.9521902847	
        1.7200000000	       25.9355668160	       25.1589256815	
        1.7250000000	       26.1381974365	       25.3526758016	
        1.7300000000	       26.2968150419	       25.5884842220	
        1.7350000000	       26.4601614187	       25.9459902912	
        1.7400000000	       26.6490539086	       26.3485930806	
        1.7450000000	       26.9242206910	       26.7612210020	
        1.7500000000	       27.3223357352	       27.1417031689	
        1.7550000000	       27.7742216097	       27.4050259463	
        1.7600000000	       28.2199147202	       27.5619949601	
        1.7650000000	       28.8732069624	       27.6601302661	
        1.7700000000	       29.6155425280	       27.6556815513	
        1.7750000000	       30.3801037859	       27.5954461503	
        1.7800000000	       31.1346799931	       27.5313179601	
        1.7850000000	       31.8195426522	       27.5154721004	
        1.7900000000	       32.2811814265	       27.5876630401	
        1.7950000000	       32.7284482603	       27.7638417110	
        1.8000000000	       33.1463272995	       28.1195836367	
        1.8050000000	       33.4493253838	       28.5951143278	
        1.8100000000	       33.6925470825	       29.1702008662	
        1.8150000000	       33.9096472553	       29.7397957233	
        1.8200000000	       34.0935354973	       30.1482294712	
        1.8250000000	       34.2778668605	       30.4527498267	
        1.8300000000	       34.5616541719	       30.7384390884	
        1.8350000000	       34.8567925019	       30.8374549919	
        1.8400000000	       35.1614254596	       30.8121631309	
        1.8450000000	       35.4157245478	       30.7164435478	
        1.8500000000	       35.6097079863	       30.6064335577	
        1.8550000000	       35.8569672698	       30.4714996199	
        1.8600000000	       36.0989906928	       30.3731140453	
        1.8650000000	       36.3305188542	       30.3235014025	
        1.8700000000	       36.5440963499	       30.3061631632	
        1.8750000000	       36.7031508194	       30.3025300682	
        1.8800000000	       36.7788963356	       30.2993385590	
        1.8850000000	       36.7795629629	       30.2952113960	
        1.8900000000	       36.6687552360	       30.2930942220	
        1.8950000000	       36.3987380810	       30.3063025820	
        1.9000000000	       36.0011719705	       30.3472881340	
        1.9050000000	       35.4920034608	       30.4249793691	
        1.9100000000	       35.0640640410	       30.5155154972	
        1.9150000000	       34.6971740676	       30.6222339219	
        1.9200000000	       34.2810161057	       30.8040924418	
        1.9250000000	       34.0159541409	       31.0251240211	
        1.9300000000	       33.9849276021	       31.2837250619	
        1.9350000000	       34.0447934783	       31.5709701283	
        1.9400000000	       34.2516698631	       31.8426339456	
        1.9450000000	       34.4279669060	       32.0442678539	
        1.9500000000	       34.6242861056	       32.2884288927	
        1.9550000000	       34.7369504347	       32.5318678991	
        1.9600000000	       34.7554958986	       32.7223471996	
        1.9650000000	       34.6318589183	       32.8519284843	
        1.9700000000	       34.4346382053	       32.8865319976	
        1.9750000000	       34.2700817990	       32.8541920612	
        1.9800000000	       34.1117009124	       32.7622796705	
        1.9850000000	       33.9463475395	       32.5806259239	
        1.9900000000	       33.8344909759	       32.3725820209	
        1.9950000000	       33.7863088174	       32.2700982441	
        2.0000000000	       33.7615608868	       32.2979465197	
        2.0050000000	       33.7356452709	       32.4070778852	
        2.0100000000	       33.6814899274	       32.7321057031	
        2.0150000000	       33.6008001551	       33.1762202200	
        2.0200000000	       33.5069105233	       33.6433970942	
        2.0250000000	       33.4140305069	       34.0374355089	
        2.0300000000	       33.3414677802	       34.2175645051	
        2.0350000000	       33.2900885867	       34.2639549362	
        2.0400000000	       33.2170335069	       34.1445079259	
        2.0450000000	       33.1072452531	       33.8550539664	
        2.0500000000	       32.9370764041	       33.4743202372	
